<svg width="30" height="30" viewBox="0 0 30 30" fill="none" xmlns="http://www.w3.org/2000/svg">
<path d="M24.125 7.13749C23.5513 6.55749 22.8679 6.09743 22.1146 5.78411C21.3614 5.47079 20.5533 5.31047 19.7375 5.31249C18.9217 5.31047 18.1136 5.47079 17.3604 5.78411C16.6071 6.09743 15.9237 6.55749 15.35 7.13749L15 7.49999L14.65 7.14999C13.4896 5.98974 11.9159 5.33793 10.275 5.33793C8.63409 5.33793 7.06037 5.98974 5.90001 7.14999C4.75484 8.31829 4.1134 9.88903 4.1134 11.525C4.1134 13.1609 4.75484 14.7317 5.90001 15.9L14.3625 24.3875C14.5383 24.5631 14.7766 24.6617 15.025 24.6617C15.2734 24.6617 15.5117 24.5631 15.6875 24.3875L24.15 15.9C25.2956 14.7279 25.9349 13.1526 25.9303 11.5136C25.9256 9.87463 25.2773 8.30307 24.125 7.13749Z" fill="#004AAD"/>
</svg>
