<svg width="31" height="30" viewBox="0 0 31 30" fill="none" xmlns="http://www.w3.org/2000/svg">
<path fill-rule="evenodd" clip-rule="evenodd" d="M18.6764 2.69C18.2139 2.5 17.6264 2.5 16.4527 2.5C15.2789 2.5 14.6914 2.5 14.2289 2.69C13.6132 2.94276 13.1231 3.42971 12.8664 4.04375C12.7489 4.3225 12.7039 4.64875 12.6852 5.1225C12.6768 5.46575 12.5811 5.80121 12.407 6.09715C12.2329 6.39309 11.9862 6.63973 11.6902 6.81375C11.3886 6.98138 11.0496 7.07018 10.7046 7.07193C10.3596 7.07368 10.0197 6.98831 9.71642 6.82375C9.29392 6.60125 8.98766 6.47875 8.68516 6.43875C8.02336 6.35185 7.35401 6.52975 6.82266 6.93375C6.42516 7.23625 6.13141 7.74125 5.54516 8.75C4.95766 9.75875 4.66516 10.2625 4.59891 10.7562C4.51141 11.4137 4.69142 12.0787 5.09892 12.605C5.28392 12.845 5.54517 13.0462 5.94892 13.2987C6.54517 13.67 6.92767 14.3025 6.92767 15C6.92767 15.6975 6.54517 16.33 5.95017 16.7C5.54517 16.9537 5.28391 17.155 5.09766 17.395C4.89652 17.6549 4.74888 17.9521 4.66327 18.2695C4.57766 18.5868 4.55579 18.9179 4.59891 19.2438C4.66516 19.7363 4.95766 20.2413 5.54516 21.25C6.13266 22.2587 6.42516 22.7625 6.82266 23.0662C7.35266 23.47 8.02266 23.6475 8.68516 23.5613C8.98766 23.5213 9.29392 23.3988 9.71642 23.1763C10.0198 23.0115 10.3599 22.926 10.7052 22.9277C11.0505 22.9295 11.3897 23.0184 11.6914 23.1862C12.2989 23.5362 12.6589 24.18 12.6852 24.8775C12.7039 25.3525 12.7489 25.6775 12.8664 25.9562C13.1214 26.5687 13.6114 27.0562 14.2289 27.31C14.6914 27.5 15.2789 27.5 16.4527 27.5C17.6264 27.5 18.2139 27.5 18.6764 27.31C19.2921 27.0572 19.7822 26.5703 20.0389 25.9562C20.1564 25.6775 20.2014 25.3525 20.2202 24.8775C20.2452 24.18 20.6064 23.535 21.2152 23.1862C21.5167 23.0186 21.8557 22.9298 22.2008 22.9281C22.5458 22.9263 22.8857 23.0117 23.1889 23.1763C23.6114 23.3988 23.9177 23.5213 24.2202 23.5613C24.8827 23.6488 25.5527 23.47 26.0827 23.0662C26.4802 22.7637 26.7739 22.2587 27.3602 21.25C27.9477 20.2413 28.2402 19.7375 28.3064 19.2438C28.3494 18.9178 28.3273 18.5867 28.2415 18.2693C28.1556 17.952 28.0078 17.6548 27.8064 17.395C27.6214 17.155 27.3602 16.9538 26.9564 16.7013C26.3602 16.33 25.9777 15.6975 25.9777 15C25.9777 14.3025 26.3602 13.67 26.9552 13.3C27.3602 13.0463 27.6214 12.845 27.8077 12.605C28.0088 12.3451 28.1565 12.0479 28.2421 11.7305C28.3277 11.4132 28.3495 11.0821 28.3064 10.7562C28.2402 10.2637 27.9477 9.75875 27.3602 8.75C26.7727 7.74125 26.4802 7.2375 26.0827 6.93375C25.5513 6.52975 24.882 6.35185 24.2202 6.43875C23.9177 6.47875 23.6114 6.60125 23.1889 6.82375C22.8855 6.98854 22.5454 7.07402 22.2001 7.07227C21.8549 7.07052 21.5156 6.9816 21.2139 6.81375C20.9182 6.63958 20.6717 6.39287 20.4978 6.09694C20.3239 5.80101 20.2284 5.46563 20.2202 5.1225C20.2014 4.6475 20.1564 4.3225 20.0389 4.04375C19.9119 3.73967 19.7261 3.4636 19.4923 3.23132C19.2586 2.99904 18.9813 2.8151 18.6764 2.69ZM16.4527 18.75C18.5402 18.75 20.2314 17.0712 20.2314 15C20.2314 12.9288 18.5389 11.25 16.4527 11.25C14.3652 11.25 12.6739 12.9288 12.6739 15C12.6739 17.0712 14.3664 18.75 16.4527 18.75Z" fill="#004AAD"/>
</svg>
