<svg width="30" height="30" viewBox="0 0 30 30" fill="none" xmlns="http://www.w3.org/2000/svg">
<path d="M13.75 11.25C13.75 13.325 12.075 15 10 15C7.925 15 6.25 13.325 6.25 11.25C6.25 9.175 7.925 7.5 10 7.5C12.075 7.5 13.75 9.175 13.75 11.25ZM17.5 25H2.5V22.5C2.5 19.7375 5.8625 17.5 10 17.5C14.1375 17.5 17.5 19.7375 17.5 22.5M8.75 11.25C8.75 11.9375 9.3125 12.5 10 12.5C10.6875 12.5 11.25 11.9375 11.25 11.25C11.25 10.5625 10.6875 10 10 10C9.3125 10 8.75 10.5625 8.75 11.25ZM5 22.5H15C15 21.125 12.7625 20 10 20C7.2375 20 5 21.125 5 22.5ZM27.5 15V17.5H16.25V15M27.5 10V12.5H16.25V10M27.5 5V7.5H16.25V5H27.5Z" fill="#1A1A4E"/>
</svg>
